<svg width="23" height="19" viewBox="0 0 23 19" fill="none" xmlns="http://www.w3.org/2000/svg">
<path d="M0 16.6328C2.56038 16.862 4.84474 16.2417 6.92984 14.6736C5.5187 14.5918 4.37962 14.0567 3.47649 13.0452C3.03565 12.5513 2.64053 11.844 2.5536 11.3902C3.23095 11.4714 3.89758 11.4889 4.5913 11.2965C2.01568 10.6519 0.809432 8.40362 0.879989 6.63405C1.21415 6.76048 1.53871 6.91007 1.87795 7.00377C2.21804 7.08895 2.5654 7.14187 2.91542 7.16181C1.79441 6.3044 1.10916 5.20032 0.939821 3.81458C0.805481 2.72066 1.04707 1.69335 1.55226 0.879403C4.10756 3.88457 7.33794 5.54577 11.3021 5.81276C11.1881 5.21141 11.1715 4.59562 11.253 3.989C11.489 2.23918 12.921 0.613544 14.6324 0.177783C16.3871 -0.269268 17.9274 0.126793 19.2531 1.36597C19.2933 1.398 19.3396 1.42145 19.3892 1.43485C19.4388 1.44825 19.4907 1.45131 19.5415 1.44386C20.4547 1.25736 21.3332 0.929608 22.1454 0.472429C22.2018 0.439691 22.2633 0.412597 22.3655 0.359538C22.0054 1.46644 21.3331 2.27587 20.4221 2.91258C21.306 2.82678 22.1391 2.57842 22.9503 2.24257L22.9999 2.29901C22.6189 2.74437 22.2571 3.20835 21.8513 3.63C21.5295 3.9636 21.1491 4.23962 20.807 4.55459C20.7245 4.6312 20.6736 4.73588 20.6642 4.8481C20.6591 9.72276 18.74 13.6384 14.7696 16.4923C13.0954 17.6963 11.1836 18.3477 9.13913 18.6158C7.22826 18.8773 5.28389 18.7383 3.42964 18.2077C2.25304 17.8682 1.12991 17.3653 0.0931355 16.7136C0.0605504 16.6885 0.0294526 16.6615 0 16.6328H0Z" fill="white"/>
</svg>
