<svg width="25" height="25" viewBox="0 0 25 25" fill="none" xmlns="http://www.w3.org/2000/svg">
<path d="M8.73427 0H16.2087C16.7922 0.0323673 17.3758 0.0627729 17.9594 0.0980826C18.979 0.157913 19.9804 0.333481 20.9171 0.755236C23.2167 1.78952 24.428 3.63151 24.8046 6.07425C24.8713 6.50582 24.9027 6.94278 24.9517 7.37679V17.4406C24.937 17.5524 24.9208 17.6642 24.9076 17.776C24.8429 18.3243 24.8149 18.8809 24.7046 19.4204C24.2083 21.8096 22.8587 23.507 20.5621 24.401C19.4616 24.8296 18.3022 24.9463 17.135 24.9581C14.4898 24.9851 11.844 25.0101 9.1982 24.9959C7.89861 24.989 6.59264 24.9836 5.31413 24.6737C3.2441 24.171 1.70665 22.9969 0.792522 21.0588C0.230018 19.8661 0.0569023 18.5827 0.0441515 17.2826C0.0157076 14.578 -0.0142076 11.8749 0.00737056 9.17072C0.0106952 8.03178 0.0926254 6.89443 0.252577 5.76677C0.509553 4.02139 1.35257 2.56633 2.78409 1.49233C4.01012 0.571821 5.43232 0.205973 6.93347 0.0995538C7.53325 0.0573783 8.13401 0.0328577 8.73427 0ZM12.5055 22.8042V22.7659C13.1652 22.7659 13.8252 22.7856 14.4839 22.762C15.8977 22.713 17.3224 22.7272 18.7225 22.5521C20.6459 22.3113 21.9504 21.2079 22.4232 19.2933C22.6139 18.52 22.6801 17.701 22.6939 16.9006C22.737 14.3858 22.7495 11.8703 22.7311 9.35414C22.731 8.33787 22.6699 7.32253 22.5482 6.31358C22.2927 4.30239 21.0387 2.94248 19.057 2.54671C18.2017 2.37605 17.3131 2.32456 16.4377 2.31034C14.2485 2.27355 12.0583 2.28042 9.86614 2.28778C8.61363 2.2917 7.35768 2.27552 6.11645 2.49375C4.22149 2.82772 2.9214 4.0307 2.53398 5.92027C2.36675 6.73484 2.31182 7.58178 2.29417 8.41598C2.2515 10.4178 2.23532 12.4217 2.25788 14.424C2.27357 15.8384 2.31084 17.2576 2.44619 18.6646C2.57861 20.0378 3.22693 21.1736 4.43237 21.9219C5.24743 22.4276 6.16352 22.6301 7.10757 22.6639C8.90689 22.7282 10.7057 22.7581 12.5055 22.8042Z" fill="white"/>
<path d="M6.06642 12.5055C6.07182 8.95493 8.96476 6.0713 12.5055 6.08601C16.0645 6.10073 18.9388 8.98828 18.9167 12.5266C18.8946 16.0787 16.0287 18.9383 12.4923 18.9348C8.94564 18.9299 6.06103 16.0443 6.06642 12.5055ZM8.33017 12.5055C8.3293 13.3292 8.57275 14.1345 9.02974 14.8198C9.48672 15.505 10.1367 16.0393 10.8974 16.355C11.6581 16.6708 12.4954 16.7537 13.3033 16.5935C14.1112 16.4332 14.8534 16.0369 15.436 15.4547C16.0186 14.8725 16.4154 14.1306 16.5763 13.3228C16.7371 12.5151 16.6547 11.6777 16.3395 10.9168C16.0243 10.1558 15.4905 9.50549 14.8056 9.04802C14.1207 8.59055 13.3155 8.34653 12.4918 8.34682C11.9452 8.34546 11.4036 8.45208 10.8983 8.66056C10.393 8.86904 9.93378 9.17526 9.5471 9.56167C9.16043 9.94807 8.85387 10.407 8.64504 10.9122C8.4362 11.4174 8.3292 11.9589 8.33017 12.5055Z" fill="white"/>
<path d="M19.2031 4.33573C19.5957 4.34983 19.9669 4.51772 20.2367 4.80316C20.5066 5.08861 20.6533 5.46871 20.6454 5.86143C20.6374 6.25414 20.4753 6.62796 20.1941 6.90221C19.9129 7.17645 19.5351 7.32912 19.1423 7.32725C18.9439 7.32631 18.7476 7.2859 18.5649 7.20837C18.3822 7.13084 18.2168 7.01775 18.0782 6.87568C17.9397 6.7336 17.8308 6.56538 17.7578 6.38082C17.6849 6.19625 17.6494 5.99902 17.6535 5.80061C17.6575 5.6022 17.701 5.40657 17.7813 5.22512C17.8617 5.04367 17.9773 4.88002 18.1216 4.74369C18.2658 4.60736 18.4357 4.50109 18.6214 4.43105C18.807 4.36101 19.0048 4.32861 19.2031 4.33573Z" fill="white"/>
</svg>
