<svg width="10" height="19" viewBox="0 0 10 19" fill="none" xmlns="http://www.w3.org/2000/svg">
<path d="M7.88944 0C8.21546 0.0247364 8.54149 0.0494729 8.86702 0.0751987C9.06937 0.0915248 9.27072 0.112303 9.47752 0.131598V3.1539C9.3944 3.1539 9.31673 3.1539 9.23856 3.1539C8.59542 3.16428 7.95227 3.14598 7.31209 3.19347C6.62343 3.24295 6.21775 3.60113 6.17421 4.29029C6.11534 5.22433 6.15937 6.16481 6.15937 7.1231H9.19602C9.05452 8.26098 8.916 9.37164 8.7755 10.4986H6.14354C6.1381 10.5664 6.12969 10.6194 6.12969 10.6723C6.12969 13.3923 6.12969 16.1133 6.12969 18.8353C6.12969 18.8902 6.14008 18.9451 6.14502 19.0001H2.7314C2.73486 18.9446 2.74129 18.8892 2.74129 18.8343C2.74129 16.1209 2.74129 13.4073 2.74129 10.6936V10.5115H0V7.1325H2.74228C2.74228 7.04395 2.74228 6.97271 2.74228 6.90146C2.75069 5.90657 2.72398 4.90969 2.77741 3.91726C2.84024 2.7497 3.24146 1.70929 4.16265 0.926132C4.77759 0.395783 5.5088 0.139019 6.30284 0.0371046C6.36271 0.0296837 6.42059 0.0123682 6.48094 0H7.88944Z" fill="white"/>
</svg>
