<svg width="52" height="57" viewBox="0 0 52 57" fill="none" xmlns="http://www.w3.org/2000/svg">
<path d="M19.9617 2.47747C23.1206 -0.82589 28.3971 -0.825889 31.556 2.47747L35.6903 6.80084C36.7476 7.90645 38.099 8.68668 39.5851 9.04949L45.3964 10.4682C49.8367 11.5523 52.4749 16.1219 51.1936 20.5092L49.5166 26.2513C49.0878 27.7198 49.0878 29.2802 49.5166 30.7487L51.1936 36.4908C52.4749 40.8781 49.8367 45.4477 45.3964 46.5318L39.5851 47.9505C38.099 48.3133 36.7476 49.0935 35.6903 50.1992L31.556 54.5225C28.3971 57.8259 23.1206 57.8259 19.9617 54.5225L15.8273 50.1992C14.7701 49.0935 13.4187 48.3133 11.9326 47.9505L6.12125 46.5318C1.681 45.4477 -0.957256 40.8781 0.32408 36.4908L2.00107 30.7487C2.42992 29.2802 2.42992 27.7198 2.00107 26.2513L0.324079 20.5092C-0.957258 16.1219 1.68101 11.5523 6.12126 10.4682L11.9326 9.04949C13.4187 8.68668 14.7701 7.90645 15.8273 6.80083L19.9617 2.47747Z" fill="#506B52"/>
</svg>
