<svg width="52" height="57" viewBox="0 0 52 57" fill="none" xmlns="http://www.w3.org/2000/svg">
<path d="M19.9615 2.47751C23.1204 -0.825843 28.397 -0.825842 31.5559 2.47751L35.6902 6.80087C36.7475 7.90649 38.0988 8.68671 39.585 9.04953L45.3963 10.4683C49.8365 11.5523 52.4748 16.1219 51.1934 20.5092L49.5164 26.2513C49.0876 27.7198 49.0876 29.2802 49.5164 30.7487L51.1934 36.4908C52.4748 40.8781 49.8365 45.4477 45.3963 46.5317L39.585 47.9505C38.0988 48.3133 36.7475 49.0935 35.6902 50.1991L31.5559 54.5225C28.397 57.8258 23.1204 57.8258 19.9615 54.5225L15.8272 50.1991C14.77 49.0935 13.4186 48.3133 11.9324 47.9505L6.12115 46.5317C1.68091 45.4477 -0.957346 40.8781 0.323988 36.4908L2.00097 30.7487C2.42983 29.2802 2.42983 27.7198 2.00097 26.2513L0.323986 20.5092C-0.957348 16.1219 1.68091 11.5523 6.12115 10.4683L11.9324 9.04953C13.4186 8.68671 14.77 7.90649 15.8272 6.80087L19.9615 2.47751Z" fill="#506B52"/>
</svg>
