<svg width="104" height="32" viewBox="0 0 104 32" fill="none" xmlns="http://www.w3.org/2000/svg">
<g clip-path="url(#clip0_2_984)">
<path d="M15.55 17C16.3 17 16.96 16.59 17.3 15.97L20.88 9.48C21.25 8.82 20.77 8 20.01 8H5.21L4.27 6H1V8H3L6.6 15.59L5.25 18.03C4.52 19.37 5.48 21 7 21H19V19H7L8.1 17H15.55ZM6.16 10H18.31L15.55 15H8.53L6.16 10ZM7 22C5.9 22 5.01 22.9 5.01 24C5.01 25.1 5.9 26 7 26C8.1 26 9 25.1 9 24C9 22.9 8.1 22 7 22ZM17 22C15.9 22 15.01 22.9 15.01 24C15.01 25.1 15.9 26 17 26C18.1 26 19 25.1 19 24C19 22.9 18.1 22 17 22Z" fill="white"/>
</g>
<g clip-path="url(#clip1_2_984)">
<path d="M92 6C86.48 6 82 10.48 82 16C82 21.52 86.48 26 92 26C97.52 26 102 21.52 102 16C102 10.48 97.52 6 92 6ZM87.07 22.28C87.5 21.38 90.12 20.5 92 20.5C93.88 20.5 96.51 21.38 96.93 22.28C95.57 23.36 93.86 24 92 24C90.14 24 88.43 23.36 87.07 22.28ZM98.36 20.83C96.93 19.09 93.46 18.5 92 18.5C90.54 18.5 87.07 19.09 85.64 20.83C84.62 19.49 84 17.82 84 16C84 11.59 87.59 8 92 8C96.41 8 100 11.59 100 16C100 17.82 99.38 19.49 98.36 20.83ZM92 10C90.06 10 88.5 11.56 88.5 13.5C88.5 15.44 90.06 17 92 17C93.94 17 95.5 15.44 95.5 13.5C95.5 11.56 93.94 10 92 10ZM92 15C91.17 15 90.5 14.33 90.5 13.5C90.5 12.67 91.17 12 92 12C92.83 12 93.5 12.67 93.5 13.5C93.5 14.33 92.83 15 92 15Z" fill="white"/>
</g>
<defs>
<clipPath id="clip0_2_984">
<rect width="24" height="24" fill="white" transform="translate(0 4)"/>
</clipPath>
<clipPath id="clip1_2_984">
<rect width="24" height="24" fill="white" transform="translate(80 4)"/>
</clipPath>
</defs>
</svg>
